<mxfile host="app.diagrams.net" modified="2021-06-08T14:38:45.336Z" agent="5.0 (X11; Linux x86_64) AppleWebKit/537.36 (KHTML, like Gecko) Chrome/78.0.3904.70 Safari/537.36" etag="aBajzMWGzb5izswZqkbu" version="14.7.6" type="github">
  <diagram id="OLMiSo9zl_z5rvVyTol2" name="Page-1">
    <mxGraphModel dx="1182" dy="1915" grid="1" gridSize="10" guides="1" tooltips="1" connect="1" arrows="1" fold="1" page="1" pageScale="1" pageWidth="827" pageHeight="1169" math="0" shadow="0">
      <root>
        <mxCell id="0" />
        <mxCell id="1" parent="0" />
        <mxCell id="-qUDhv_ZsKp3VUNVFHI_-1" value="필요한 library" style="swimlane;fontStyle=0;childLayout=stackLayout;horizontal=1;startSize=30;fillColor=none;horizontalStack=0;resizeParent=1;resizeParentMax=0;resizeLast=0;collapsible=1;marginBottom=0;" vertex="1" parent="1">
          <mxGeometry x="280" y="-20" width="160" height="214" as="geometry" />
        </mxCell>
        <mxCell id="-qUDhv_ZsKp3VUNVFHI_-2" value="react-router-dom" style="text;strokeColor=none;fillColor=none;align=left;verticalAlign=top;spacingLeft=4;spacingRight=4;overflow=hidden;rotatable=0;points=[[0,0.5],[1,0.5]];portConstraint=eastwest;" vertex="1" parent="-qUDhv_ZsKp3VUNVFHI_-1">
          <mxGeometry y="30" width="160" height="26" as="geometry" />
        </mxCell>
        <mxCell id="-qUDhv_ZsKp3VUNVFHI_-3" value="styled-components" style="text;strokeColor=none;fillColor=none;align=left;verticalAlign=top;spacingLeft=4;spacingRight=4;overflow=hidden;rotatable=0;points=[[0,0.5],[1,0.5]];portConstraint=eastwest;" vertex="1" parent="-qUDhv_ZsKp3VUNVFHI_-1">
          <mxGeometry y="56" width="160" height="26" as="geometry" />
        </mxCell>
        <mxCell id="-qUDhv_ZsKp3VUNVFHI_-31" value="redux" style="text;strokeColor=none;fillColor=none;align=left;verticalAlign=top;spacingLeft=4;spacingRight=4;overflow=hidden;rotatable=0;points=[[0,0.5],[1,0.5]];portConstraint=eastwest;" vertex="1" parent="-qUDhv_ZsKp3VUNVFHI_-1">
          <mxGeometry y="82" width="160" height="26" as="geometry" />
        </mxCell>
        <mxCell id="-qUDhv_ZsKp3VUNVFHI_-38" value="react-redux" style="text;strokeColor=none;fillColor=none;align=left;verticalAlign=top;spacingLeft=4;spacingRight=4;overflow=hidden;rotatable=0;points=[[0,0.5],[1,0.5]];portConstraint=eastwest;" vertex="1" parent="-qUDhv_ZsKp3VUNVFHI_-1">
          <mxGeometry y="108" width="160" height="26" as="geometry" />
        </mxCell>
        <mxCell id="-qUDhv_ZsKp3VUNVFHI_-39" value="redux-actions" style="text;strokeColor=none;fillColor=none;align=left;verticalAlign=top;spacingLeft=4;spacingRight=4;overflow=hidden;rotatable=0;points=[[0,0.5],[1,0.5]];portConstraint=eastwest;" vertex="1" parent="-qUDhv_ZsKp3VUNVFHI_-1">
          <mxGeometry y="134" width="160" height="26" as="geometry" />
        </mxCell>
        <mxCell id="-qUDhv_ZsKp3VUNVFHI_-40" value="immer" style="text;strokeColor=none;fillColor=none;align=left;verticalAlign=top;spacingLeft=4;spacingRight=4;overflow=hidden;rotatable=0;points=[[0,0.5],[1,0.5]];portConstraint=eastwest;" vertex="1" parent="-qUDhv_ZsKp3VUNVFHI_-1">
          <mxGeometry y="160" width="160" height="26" as="geometry" />
        </mxCell>
        <mxCell id="-qUDhv_ZsKp3VUNVFHI_-41" value="redux-devtools-extension" style="text;strokeColor=none;fillColor=none;align=left;verticalAlign=top;spacingLeft=4;spacingRight=4;overflow=hidden;rotatable=0;points=[[0,0.5],[1,0.5]];portConstraint=eastwest;" vertex="1" parent="-qUDhv_ZsKp3VUNVFHI_-1">
          <mxGeometry y="186" width="160" height="28" as="geometry" />
        </mxCell>
        <mxCell id="-qUDhv_ZsKp3VUNVFHI_-6" value="react-router-dom" style="swimlane;fontStyle=0;childLayout=stackLayout;horizontal=1;startSize=26;fillColor=none;horizontalStack=0;resizeParent=1;resizeParentMax=0;resizeLast=0;collapsible=1;marginBottom=0;" vertex="1" parent="1">
          <mxGeometry y="240" width="160" height="170" as="geometry" />
        </mxCell>
        <mxCell id="-qUDhv_ZsKp3VUNVFHI_-7" value="BrowserRouter&#xa;index.js에서 App을 감싼다" style="text;strokeColor=none;fillColor=none;align=left;verticalAlign=top;spacingLeft=4;spacingRight=4;overflow=hidden;rotatable=0;points=[[0,0.5],[1,0.5]];portConstraint=eastwest;" vertex="1" parent="-qUDhv_ZsKp3VUNVFHI_-6">
          <mxGeometry y="26" width="160" height="54" as="geometry" />
        </mxCell>
        <mxCell id="-qUDhv_ZsKp3VUNVFHI_-8" value="Route:&#xa;&lt;Route&gt;&#xa;component={}&#xa;path={}&#xa;exact" style="text;strokeColor=none;fillColor=none;align=left;verticalAlign=top;spacingLeft=4;spacingRight=4;overflow=hidden;rotatable=0;points=[[0,0.5],[1,0.5]];portConstraint=eastwest;" vertex="1" parent="-qUDhv_ZsKp3VUNVFHI_-6">
          <mxGeometry y="80" width="160" height="90" as="geometry" />
        </mxCell>
        <mxCell id="-qUDhv_ZsKp3VUNVFHI_-10" style="edgeStyle=orthogonalEdgeStyle;rounded=0;orthogonalLoop=1;jettySize=auto;html=1;exitX=0;exitY=0.5;exitDx=0;exitDy=0;" edge="1" parent="1" source="-qUDhv_ZsKp3VUNVFHI_-2" target="-qUDhv_ZsKp3VUNVFHI_-6">
          <mxGeometry relative="1" as="geometry" />
        </mxCell>
        <mxCell id="-qUDhv_ZsKp3VUNVFHI_-27" value="styled-components&#xa;" style="swimlane;fontStyle=0;childLayout=stackLayout;horizontal=1;startSize=26;horizontalStack=0;resizeParent=1;resizeParentMax=0;resizeLast=0;collapsible=1;marginBottom=0;" vertex="1" parent="1">
          <mxGeometry x="180" y="240" width="140" height="80" as="geometry" />
        </mxCell>
        <mxCell id="-qUDhv_ZsKp3VUNVFHI_-28" value="styled:&#xa;css in js " style="text;strokeColor=none;fillColor=none;align=left;verticalAlign=top;spacingLeft=4;spacingRight=4;overflow=hidden;rotatable=0;points=[[0,0.5],[1,0.5]];portConstraint=eastwest;" vertex="1" parent="-qUDhv_ZsKp3VUNVFHI_-27">
          <mxGeometry y="26" width="140" height="54" as="geometry" />
        </mxCell>
        <mxCell id="-qUDhv_ZsKp3VUNVFHI_-45" style="edgeStyle=orthogonalEdgeStyle;rounded=0;orthogonalLoop=1;jettySize=auto;html=1;entryX=0.5;entryY=0;entryDx=0;entryDy=0;" edge="1" parent="1" source="-qUDhv_ZsKp3VUNVFHI_-3" target="-qUDhv_ZsKp3VUNVFHI_-27">
          <mxGeometry relative="1" as="geometry" />
        </mxCell>
      </root>
    </mxGraphModel>
  </diagram>
</mxfile>
